HIERARCHY
ROOT SpineBase
{
  OFFSET 0.000000 0.000000 0.000000
  CHANNELS 6 Xposition Yposition Zposition Zrotation Xrotation Yrotation
  JOINT SpineMid
  {
    OFFSET 0.000000 28.400387 0.000000
    CHANNELS 3 Zrotation Xrotation Yrotation
    JOINT SpineShoulder
    {
      OFFSET -0.123356 21.076525 -0.691937
      CHANNELS 3 Zrotation Xrotation Yrotation
      JOINT Neck
      {
        OFFSET -0.077845 6.963903 -0.545642
        CHANNELS 3 Zrotation Xrotation Yrotation
        JOINT Head
        {
          OFFSET 3.711026 12.876461 -0.999540
          CHANNELS 3 Zrotation Xrotation Yrotation
          End Site
          {
            OFFSET 0 0 0
          }
        }
      }
      JOINT ShoulderLeft
      {
        OFFSET -14.473950 -3.317705 -6.292013
        CHANNELS 3 Zrotation Xrotation Yrotation
        JOINT ElbowLeft
        {
          OFFSET -4.939307 -25.356040 0.374268
          CHANNELS 3 Zrotation Xrotation Yrotation
          JOINT WristLeft
          {
            OFFSET -0.373739 -21.496604 -5.264824
            CHANNELS 3 Zrotation Xrotation Yrotation
            JOINT HandLeft
            {
              OFFSET -0.148888 -5.312640 1.088274
              CHANNELS 3 Zrotation Xrotation Yrotation
              JOINT HandTipLeft
              {
                OFFSET -0.428431 -4.175595 0.187375
                CHANNELS 3 Zrotation Xrotation Yrotation
                End Site
                {
                  OFFSET 0 0 0
                }
              }
              JOINT ThumbLeft
              {
                OFFSET -2.953959 -0.384779 -1.078353
                CHANNELS 3 Zrotation Xrotation Yrotation
                End Site
                {
                  OFFSET 0 0 0
                }
              }
            }
          }
        }
      }
      JOINT ShoulderRight
      {
        OFFSET 16.317087 -5.431890 0.918680
        CHANNELS 3 Zrotation Xrotation Yrotation
        JOINT ElbowRight
        {
          OFFSET 1.939102 -26.688492 4.508803
          CHANNELS 3 Zrotation Xrotation Yrotation
          JOINT WristRight
          {
            OFFSET 2.235802 -21.475857 -4.638207
            CHANNELS 3 Zrotation Xrotation Yrotation
            JOINT HandRight
            {
              OFFSET -1.104881 -3.687427 -0.937175
              CHANNELS 3 Zrotation Xrotation Yrotation
              JOINT HandTipRight
              {
                OFFSET 0.821673 -5.159124 0.457564
                CHANNELS 3 Zrotation Xrotation Yrotation
                End Site
                {
                  OFFSET 0 0 0
                }
              }
              JOINT ThumbRight
              {
                OFFSET -2.468966 1.507843 -2.520444
                CHANNELS 3 Zrotation Xrotation Yrotation
                End Site
                {
                  OFFSET 0 0 0
                }
              }
            }
          }
        }
      }
    }
  }
  JOINT HipLeft
  {
    OFFSET -6.006461 0.960310 -4.759353
    CHANNELS 3 Zrotation Xrotation Yrotation
    JOINT KneeLeft
    {
      OFFSET -6.748670 -28.588219 5.129413
      CHANNELS 3 Zrotation Xrotation Yrotation
      JOINT AnkleLeft
      {
        OFFSET -4.134972 -30.506238 7.451699
        CHANNELS 3 Zrotation Xrotation Yrotation
        JOINT FootLeft
        {
          OFFSET 4.876621 -8.128942 -1.376367
          CHANNELS 3 Zrotation Xrotation Yrotation
          End Site
          {
            OFFSET 0 0 0
          }
        }
      }
    }
  }
  JOINT HipRight
  {
    OFFSET 5.624854 0.240356 -1.880028
    CHANNELS 3 Zrotation Xrotation Yrotation
    JOINT KneeRight
    {
      OFFSET -1.914791 -23.819925 4.997246
      CHANNELS 3 Zrotation Xrotation Yrotation
      JOINT AnkleRight
      {
        OFFSET -6.397554 -38.604893 12.513634
        CHANNELS 3 Zrotation Xrotation Yrotation
        JOINT FootRight
        {
          OFFSET -0.770325 -5.742453 -7.454197
          CHANNELS 3 Zrotation Xrotation Yrotation
          End Site
          {
            OFFSET 0 0 0
          }
        }
      }
    }
  }
}
MOTION
Frames: 9
Frame Time: 0.033333
20.444198 120.564125 364.574347 -0.000000 0.000000 -13.904016 -0.000000 0.000000 13.904016 -0.000000 0.000000 0.000000 -0.000000 0.000000 0.000000 0.000000 0.000000 0.000000 -0.000000 0.000000 0.000000 -0.000000 0.000000 0.000000 -0.000000 0.000000 0.000000 -0.000000 0.000000 0.000000 0.000000 0.000000 0.000000 0.000000 0.000000 0.000000 -0.000000 0.000000 0.000000 -0.000000 0.000000 0.000000 -0.000000 0.000000 0.000000 -0.000000 0.000000 0.000000 0.000000 0.000000 0.000000 0.000000 0.000000 0.000000 -0.000000 0.000000 13.904016 -0.000000 0.000000 0.000000 -0.000000 0.000000 0.000000 0.000000 0.000000 0.000000 -0.000000 0.000000 13.904016 -0.000000 0.000000 0.000000 -0.000000 0.000000 0.000000 0.000000 0.000000 0.000000
20.354732 120.556075 364.505849 -0.109659 0.088295 -13.997264 0.127759 -0.059149 13.997415 -0.000000 0.000000 0.000000 -0.000000 0.000000 0.000000 0.000000 0.000000 0.000000 -0.000000 0.000000 0.000000 -0.000000 0.000000 0.000000 1.443564 -0.635826 0.321301 0.367659 1.868780 -0.390888 0.000000 0.000000 0.000000 0.000000 0.000000 0.000000 -0.000000 0.000000 0.000000 -0.000000 0.000000 0.000000 0.658162 -2.093868 0.475239 0.004012 2.641566 -0.334208 0.000000 0.000000 0.000000 0.000000 0.000000 0.000000 0.127759 -0.059149 13.997415 -0.000000 0.000000 0.000000 -1.432110 7.409826 4.767369 0.000000 0.000000 0.000000 -0.500902 -1.964000 13.898423 1.577850 2.854696 0.025575 0.890574 2.314022 -2.195486 0.000000 0.000000 0.000000
20.283204 120.550463 364.451044 -0.194318 0.149046 -14.068108 0.224720 -0.097341 14.068551 -0.000000 0.000000 0.000000 -0.000000 0.000000 0.000000 0.000000 0.000000 0.000000 -0.000000 0.000000 0.000000 -0.000000 0.000000 0.000000 2.726614 -0.908117 0.605121 0.615581 3.227752 -0.773274 0.000000 0.000000 0.000000 0.000000 0.000000 0.000000 -0.000000 0.000000 0.000000 -1.057139 0.342954 0.267272 2.264830 -4.440106 0.714627 -0.173063 5.072719 -0.720140 0.000000 0.000000 0.000000 0.000000 0.000000 0.000000 0.224720 -0.097341 14.068551 -0.000000 0.000000 0.000000 -3.244987 14.103176 9.396347 0.000000 0.000000 0.000000 -0.813561 -3.240211 13.892658 2.723133 4.989699 -0.014635 1.643121 3.351144 -3.885288 0.000000 0.000000 0.000000
20.229617 120.547290 364.409931 -0.253981 0.182253 -14.116377 0.290762 -0.114803 14.117072 -0.000000 0.000000 0.000000 0.678901 -0.569191 0.220407 0.000000 0.000000 0.000000 -0.000000 0.000000 0.000000 -0.000000 0.000000 0.000000 3.841080 -0.815529 0.836880 0.726203 4.069264 -1.110944 0.000000 0.000000 0.000000 0.000000 0.000000 0.000000 0.244288 1.051001 0.115556 -1.718391 -0.587563 0.225035 3.123617 -6.451167 1.127331 -0.543754 7.268984 -1.132690 0.000000 0.000000 0.000000 0.000000 0.000000 0.000000 0.290762 -0.114803 14.117072 -0.000000 0.000000 0.000000 -5.234700 19.812097 13.711678 0.000000 0.000000 0.000000 -1.006705 -4.032777 13.887504 3.510961 6.497042 -0.073998 2.264063 3.357783 -5.114720 0.000000 0.000000 0.000000
20.193968 120.546554 364.382511 -0.288642 0.187901 -14.142005 0.325804 -0.111681 14.142796 -0.000000 0.000000 0.000000 0.837265 -0.687821 0.268694 0.000000 0.000000 0.000000 -0.000000 0.000000 0.000000 -0.000000 0.000000 0.000000 4.781200 -0.358533 1.005502 0.686960 4.390943 -1.378027 0.000000 0.000000 0.000000 0.000000 0.000000 0.000000 0.324357 1.240240 0.141632 -2.139390 -0.694038 0.268897 3.773814 -8.311410 1.566836 -1.090806 9.215922 -1.549920 0.000000 0.000000 0.000000 0.000000 0.000000 0.000000 0.325804 -0.111681 14.142796 -0.000000 0.000000 0.000000 -7.187399 24.468753 17.563537 0.000000 0.000000 0.000000 -1.116938 -4.449984 13.881637 3.962864 7.390042 -0.122786 2.782111 2.493876 -5.923589 0.000000 0.000000 0.000000
20.176260 120.548257 364.368784 -0.298285 0.165971 -14.145031 0.329801 -0.088042 14.145716 -0.000000 0.000000 0.000000 0.961087 -0.770700 0.303767 0.000000 0.000000 0.000000 -0.000000 0.000000 0.000000 -0.000000 0.000000 0.000000 5.543301 0.461144 1.103535 0.491583 4.193611 -1.560412 0.000000 0.000000 0.000000 0.000000 0.000000 0.000000 0.404032 1.350152 0.161881 -2.484480 -0.756875 0.300589 4.184591 -10.011213 2.026013 -1.762548 10.907728 -1.959174 0.000000 0.000000 0.000000 0.000000 0.000000 0.000000 -0.177980 0.505988 13.919910 0.731632 -1.395531 0.423746 -9.255445 28.860812 20.756852 0.000000 0.000000 0.000000 -1.162477 -4.545028 13.873874 4.081041 7.657200 -0.143036 3.224517 0.807231 -6.335064 0.000000 0.000000 0.000000
20.196146 120.547722 364.392226 -0.266653 0.095307 -14.113776 0.281844 -0.027407 14.114065 -0.000000 0.000000 0.000000 1.119523 -0.805175 0.327573 0.000000 0.000000 0.000000 -0.000000 0.000000 0.000000 -0.000000 0.000000 0.000000 6.118882 2.262274 1.076217 -0.821540 1.976369 -1.504533 0.000000 0.000000 0.000000 0.000000 0.000000 0.000000 0.464732 1.377183 0.173295 -2.651640 -0.701858 0.317538 3.647006 -13.635057 3.268491 -3.903704 14.173866 -2.905489 0.000000 0.000000 0.000000 0.000000 0.000000 0.000000 -0.276885 0.607690 13.869802 0.839709 -1.511886 0.470710 -13.258039 33.040658 25.781998 0.000000 0.000000 0.000000 -1.262532 -4.492522 13.830904 4.014093 7.621195 -0.153781 6.006465 1.013589 -9.590684 0.000000 0.000000 0.000000
20.217368 120.550888 364.407667 -0.221269 0.009820 -14.043250 0.217039 0.044166 14.043185 -0.000000 0.000000 0.000000 1.165413 -0.765637 0.319688 0.000000 0.000000 0.000000 -0.000000 0.000000 0.000000 -0.000000 0.000000 0.000000 6.320456 4.483110 0.931573 0.090686 1.292723 -1.560375 0.000000 0.000000 0.000000 0.000000 0.000000 0.000000 0.541841 1.281186 0.178849 -2.882155 -0.583921 0.348107 1.938486 -15.024756 3.896718 -1.790439 15.075292 -4.066329 0.000000 0.000000 0.000000 0.000000 0.000000 0.000000 -0.345551 0.682156 13.798176 0.853553 -1.541480 0.478489 -12.260525 31.232800 23.907238 0.000000 0.000000 0.000000 -1.099138 -3.886135 13.813760 3.238458 6.525874 -0.144383 6.462349 -2.643978 -9.258188 0.000000 0.000000 0.000000
20.236649 120.565534 364.418628 -0.172117 -0.090385 -13.999540 0.145140 0.129338 13.999241 -0.000000 0.000000 0.000000 1.223049 -0.580592 0.269192 0.000000 0.000000 0.000000 -0.000000 0.000000 0.000000 -0.000000 0.000000 0.000000 6.779627 5.446254 0.925350 -1.066831 2.078431 -1.927159 0.000000 0.000000 0.000000 0.000000 0.000000 0.000000 0.627593 1.187075 0.186030 -3.127621 -0.586938 0.363892 1.822667 -14.971044 3.914565 -1.040552 13.840724 -4.476515 0.000000 0.000000 0.000000 0.000000 0.000000 0.000000 0.145140 0.129338 13.999241 0.330347 -0.724565 0.180786 -5.453949 17.071504 11.356940 0.000000 0.000000 0.000000 -0.657133 -2.553688 13.877120 1.893977 4.247262 -0.104231 5.168241 -8.075108 -6.305163 0.000000 0.000000 0.000000
